<?xml version="1.0" encoding="UTF-8" standalone="no"?>
<!DOCTYPE svg PUBLIC "-//W3C//DTD SVG 1.1//EN" "http://www.w3.org/Graphics/SVG/1.1/DTD/svg11.dtd">
<!-- Generated by Microsoft Visio, SVG Export pacemaker.svg Page-1 -->
<svg xmlns="http://www.w3.org/2000/svg" xmlns:xlink="http://www.w3.org/1999/xlink" xmlns:ev="http://www.w3.org/2001/xml-events"
		xmlns:v="http://schemas.microsoft.com/visio/2003/SVGExtensions/" width="13.9474in" height="2.57465in"
		viewBox="0 0 1004.21 185.375" xml:space="preserve" color-interpolation-filters="sRGB" class="st18">
	<v:documentProperties v:langID="1042" v:metric="true" v:viewMarkup="false"/>

	<style type="text/css">
	<![CDATA[
		.st1 {fill:#dbeef3;stroke:#000000;stroke-linecap:round;stroke-linejoin:round;stroke-width:0.24}
		.st2 {fill:#000000;font-family:맑은 고딕;font-size:0.833336em}
		.st3 {fill:#dde2cd;stroke:#000000;stroke-linecap:round;stroke-linejoin:round;stroke-width:0.24}
		.st4 {fill:none;stroke:none;stroke-linecap:round;stroke-linejoin:round;stroke-width:0.75}
		.st5 {fill:#000000;font-family:맑은 고딕;font-size:1.00001em;font-weight:bold}
		.st6 {fill:#ffffff;stroke:#000000;stroke-linecap:round;stroke-linejoin:round;stroke-width:0.75}
		.st7 {stroke:#000000;stroke-linecap:butt;stroke-width:0.75}
		.st8 {fill:#000000;font-family:맑은 고딕;font-size:1.00001em}
		.st9 {fill:none;stroke:#000000;stroke-dasharray:5.25,3.75;stroke-linecap:round;stroke-linejoin:round;stroke-width:0.75}
		.st10 {font-size:1em}
		.st11 {marker-end:url(#mrkr13-106);marker-start:url(#mrkr13-104);stroke:#000000;stroke-linecap:round;stroke-linejoin:round;stroke-width:0.75}
		.st12 {fill:#000000;fill-opacity:1;stroke:#000000;stroke-opacity:1;stroke-width:0.22935779816514}
		.st13 {fill:#b7dde8;stroke:#000000;stroke-linecap:round;stroke-linejoin:round;stroke-width:0.24}
		.st14 {fill:#000000;font-family:맑은 고딕;font-size:0.666664em}
		.st15 {stroke:#000000;stroke-linecap:round;stroke-linejoin:round;stroke-width:0.75}
		.st16 {fill:#ffffff}
		.st17 {fill:#000000;font-family:Calibri;font-size:1.00001em}
		.st18 {fill:none;fill-rule:evenodd;font-size:12px;overflow:visible;stroke-linecap:square;stroke-miterlimit:3}
	]]>
	</style>

	<defs id="Markers">
		<g id="lend13">
			<path d="M 3 1 L 0 0 L 3 -1 L 3 1 " style="stroke:none"/>
		</g>
		<marker id="mrkr13-104" class="st12" v:arrowType="13" v:arrowSize="2" v:setback="12.6" refX="12.6" orient="auto"
				markerUnits="strokeWidth" overflow="visible">
			<use xlink:href="#lend13" transform="scale(4.36) "/>
		</marker>
		<marker id="mrkr13-106" class="st12" v:arrowType="13" v:arrowSize="2" v:setback="13.08" refX="-13.08" orient="auto"
				markerUnits="strokeWidth" overflow="visible">
			<use xlink:href="#lend13" transform="scale(-4.36,-4.36) "/>
		</marker>
	</defs>
	<g v:mID="0" v:index="1" v:groupContext="foregroundPage">
		<title>Page-1</title>
		<v:pageProperties v:drawingScale="0.0393701" v:pageScale="0.0393701" v:drawingUnits="24" v:shadowOffsetX="8.50394"
				v:shadowOffsetY="-8.50394"/>
		<v:layer v:name="Connector" v:index="0"/>
		<v:layer v:name="Flowchart" v:index="1"/>
		<g id="shape1-1" v:mID="1" v:groupContext="shape" transform="translate(310.769,-23.0522)">
			<title>Rectangle</title>
			<desc>node1</desc>
			<v:userDefs>
				<v:ud v:nameU="visVersion" v:val="VT0(15):26"/>
			</v:userDefs>
			<v:textBlock v:margins="rect(4,4,4,4)" v:tabSpace="42.5197"/>
			<v:textRect cx="56.6929" cy="142.855" width="113.39" height="85.0394"/>
			<rect x="0" y="100.336" width="113.386" height="85.0394" class="st1"/>
			<text x="42.37" y="145.86" class="st2" v:langID="1042"><v:paragraph v:horizAlign="1"/><v:tabList/>node1</text>		</g>
		<g id="shape3-4" v:mID="3" v:groupContext="shape" transform="translate(877.698,-23.0522)">
			<title>Rectangle.3</title>
			<desc>node3</desc>
			<v:userDefs>
				<v:ud v:nameU="visVersion" v:val="VT0(15):26"/>
			</v:userDefs>
			<v:textBlock v:margins="rect(4,4,4,4)" v:tabSpace="42.5197"/>
			<v:textRect cx="56.6929" cy="142.855" width="113.39" height="85.0394"/>
			<rect x="0" y="100.336" width="113.386" height="85.0394" class="st1"/>
			<text x="42.37" y="145.86" class="st2" v:langID="1042"><v:paragraph v:horizAlign="1"/><v:tabList/>node3</text>		</g>
		<g id="shape5-7" v:mID="5" v:groupContext="shape" transform="translate(434.784,-47.1466)">
			<title>2-D double</title>
			<v:userDefs>
				<v:ud v:nameU="visVersion" v:val="VT0(15):26"/>
			</v:userDefs>
			<path d="M9.21 157.74 L9.21 148.52 L0 166.95 L9.21 185.37 L9.21 176.16 L423.07 176.16 L423.07 185.37 L432.28 166.95 L423.07
						 148.52 L423.07 157.74 L9.21 157.74 Z" class="st3"/>
		</g>
		<g id="shape2-9" v:mID="2" v:groupContext="shape" transform="translate(594.233,-23.0522)">
			<title>Rectangle.2</title>
			<desc>node2</desc>
			<v:userDefs>
				<v:ud v:nameU="visVersion" v:val="VT0(15):26"/>
			</v:userDefs>
			<v:textBlock v:margins="rect(4,4,4,4)" v:tabSpace="42.5197"/>
			<v:textRect cx="56.6929" cy="142.855" width="113.39" height="85.0394"/>
			<rect x="0" y="100.336" width="113.386" height="85.0394" class="st1"/>
			<text x="42.37" y="145.86" class="st2" v:langID="1042"><v:paragraph v:horizAlign="1"/><v:tabList/>node2</text>		</g>
		<g id="shape6-12" v:mID="6" v:groupContext="shape" transform="translate(447.367,-55.5718)">
			<title>Sheet.6</title>
			<desc>internal network</desc>
			<v:textBlock v:margins="rect(4,4,4,4)" v:tabSpace="42.5197"/>
			<v:textRect cx="76" cy="175.375" width="152" height="20"/>
			<rect x="0" y="165.375" width="152" height="20" class="st4"/>
			<text x="28.64" y="179.06" class="st5" v:langID="1042"><v:paragraph v:horizAlign="1"/><v:tabList/>internal network</text>		</g>
		<g id="group9-15" transform="translate(480.847,-93.9183)" v:mID="9" v:groupContext="group">
			<v:custProps>
				<v:cp v:nameU="AssetNumber" v:lbl="Asset Number" v:prompt="" v:type="0" v:format="" v:sortKey="Asset"
						v:invis="false" v:ask="false" v:langID="1033" v:cal="0"/>
				<v:cp v:nameU="SerialNumber" v:lbl="Serial Number" v:prompt="" v:type="0" v:format="" v:sortKey="Asset"
						v:invis="false" v:ask="false" v:langID="1033" v:cal="0"/>
				<v:cp v:nameU="Location" v:lbl="Location" v:prompt="" v:type="0" v:format="" v:sortKey="Asset" v:invis="false"
						v:ask="false" v:langID="1033" v:cal="0"/>
				<v:cp v:nameU="Building" v:lbl="Building" v:prompt="" v:type="0" v:format="" v:sortKey="Asset" v:invis="false"
						v:ask="false" v:langID="1033" v:cal="0"/>
				<v:cp v:nameU="Room" v:lbl="Room" v:prompt="" v:type="0" v:format="" v:sortKey="Asset" v:invis="false"
						v:ask="false" v:langID="1033" v:cal="0"/>
				<v:cp v:nameU="Manufacturer" v:lbl="Manufacturer" v:prompt="" v:type="0" v:format="" v:sortKey="Equipment"
						v:invis="false" v:ask="false" v:langID="1033" v:cal="0"/>
				<v:cp v:nameU="ProductNumber" v:lbl="Product Number" v:prompt="" v:type="0" v:format="" v:sortKey="Equipment"
						v:invis="false" v:ask="false" v:langID="1033" v:cal="0"/>
				<v:cp v:nameU="PartNumber" v:lbl="Part Number" v:prompt="" v:type="0" v:format="" v:sortKey="Equipment"
						v:invis="false" v:ask="false" v:langID="1033" v:cal="0"/>
				<v:cp v:nameU="ProductDescription" v:lbl="Product Description" v:prompt="" v:type="0" v:format=""
						v:sortKey="Equipment" v:invis="false" v:ask="false" v:langID="1033" v:cal="0"/>
				<v:cp v:nameU="ShapeClass" v:lbl="ShapeClass" v:prompt="" v:type="0" v:format="" v:sortKey="" v:invis="true"
						v:ask="false" v:langID="1033" v:cal="0" v:val="VT4(Equipment)"/>
				<v:cp v:nameU="ShapeType" v:lbl="ShapeType" v:prompt="" v:type="0" v:format="" v:sortKey="" v:invis="true"
						v:ask="false" v:langID="1033" v:cal="0" v:val="VT4(Device)"/>
				<v:cp v:nameU="SubShapeType" v:lbl="SubShapeType" v:prompt="" v:type="0" v:format="" v:sortKey="" v:invis="true"
						v:ask="false" v:langID="1033" v:cal="0" v:val="VT4(Firewall)"/>
			</v:custProps>
			<v:userDefs>
				<v:ud v:nameU="visVersion" v:prompt="" v:val="VT0(15):26"/>
				<v:ud v:nameU="ShapeClass" v:prompt="" v:val="VT0(5):26"/>
				<v:ud v:nameU="SolSH" v:prompt="" v:val="VT15({BF0433D9-CD73-4EB5-8390-8653BE590246}):41"/>
				<v:ud v:nameU="visLegendShape" v:prompt="" v:val="VT0(2):26"/>
			</v:userDefs>
			<title>Firewall</title>
			<g id="shape10-16" v:mID="10" v:groupContext="shape" transform="translate(0.545123,-7.63784)">
				<title>Sheet.10</title>
				<rect x="0" y="129.784" width="69.7759" height="55.5905" class="st6"/>
			</g>
			<g id="shape11-18" v:mID="11" v:groupContext="shape" transform="translate(0.920123,-8.01284)">
				<title>Sheet.11</title>
				<v:userDefs>
					<v:ud v:nameU="SurroundingRegionColor" v:prompt="" v:val="VT5(1)"/>
				</v:userDefs>
				<path d="M0 177.54 L69.03 177.54" class="st7"/>
				<path d="M0 169.71 L69.03 169.71" class="st7"/>
				<path d="M0 161.87 L69.03 161.87" class="st7"/>
				<path d="M0 154.04 L69.03 154.04" class="st7"/>
				<path d="M0 146.2 L69.03 146.2" class="st7"/>
				<path d="M0 138.37 L69.03 138.37" class="st7"/>
				<path d="M17.26 185.37 L17.26 177.54" class="st7"/>
				<path d="M34.51 185.37 L34.51 177.54" class="st7"/>
				<path d="M51.77 185.37 L51.77 177.54" class="st7"/>
				<path d="M8.63 177.54 L8.63 169.71" class="st7"/>
				<path d="M25.88 177.54 L25.88 169.71" class="st7"/>
				<path d="M43.14 177.54 L43.14 169.71" class="st7"/>
				<path d="M60.4 177.54 L60.4 169.71" class="st7"/>
				<path d="M17.26 169.71 L17.26 161.87" class="st7"/>
				<path d="M34.51 169.71 L34.51 161.87" class="st7"/>
				<path d="M51.77 169.71 L51.77 161.87" class="st7"/>
				<path d="M8.63 161.87 L8.63 154.04" class="st7"/>
				<path d="M25.88 161.87 L25.88 154.04" class="st7"/>
				<path d="M43.14 161.87 L43.14 154.04" class="st7"/>
				<path d="M60.4 161.87 L60.4 154.04" class="st7"/>
				<path d="M17.26 154.04 L17.26 146.2" class="st7"/>
				<path d="M34.51 154.04 L34.51 146.2" class="st7"/>
				<path d="M51.77 154.04 L51.77 146.2" class="st7"/>
				<path d="M8.63 146.2 L8.63 138.37" class="st7"/>
				<path d="M25.88 146.2 L25.88 138.37" class="st7"/>
				<path d="M43.14 146.2 L43.14 138.37" class="st7"/>
				<path d="M60.4 146.2 L60.4 138.37" class="st7"/>
				<path d="M17.26 138.37 L17.26 130.53" class="st7"/>
				<path d="M34.51 138.37 L34.51 130.53" class="st7"/>
				<path d="M51.77 138.37 L51.77 130.53" class="st7"/>
			</g>
		</g>
		<g id="group12-50" transform="translate(750.139,-93.9183)" v:mID="12" v:groupContext="group">
			<v:custProps>
				<v:cp v:nameU="AssetNumber" v:lbl="Asset Number" v:prompt="" v:type="0" v:format="" v:sortKey="Asset"
						v:invis="false" v:ask="false" v:langID="1033" v:cal="0"/>
				<v:cp v:nameU="SerialNumber" v:lbl="Serial Number" v:prompt="" v:type="0" v:format="" v:sortKey="Asset"
						v:invis="false" v:ask="false" v:langID="1033" v:cal="0"/>
				<v:cp v:nameU="Location" v:lbl="Location" v:prompt="" v:type="0" v:format="" v:sortKey="Asset" v:invis="false"
						v:ask="false" v:langID="1033" v:cal="0"/>
				<v:cp v:nameU="Building" v:lbl="Building" v:prompt="" v:type="0" v:format="" v:sortKey="Asset" v:invis="false"
						v:ask="false" v:langID="1033" v:cal="0"/>
				<v:cp v:nameU="Room" v:lbl="Room" v:prompt="" v:type="0" v:format="" v:sortKey="Asset" v:invis="false"
						v:ask="false" v:langID="1033" v:cal="0"/>
				<v:cp v:nameU="Manufacturer" v:lbl="Manufacturer" v:prompt="" v:type="0" v:format="" v:sortKey="Equipment"
						v:invis="false" v:ask="false" v:langID="1033" v:cal="0"/>
				<v:cp v:nameU="ProductNumber" v:lbl="Product Number" v:prompt="" v:type="0" v:format="" v:sortKey="Equipment"
						v:invis="false" v:ask="false" v:langID="1033" v:cal="0"/>
				<v:cp v:nameU="PartNumber" v:lbl="Part Number" v:prompt="" v:type="0" v:format="" v:sortKey="Equipment"
						v:invis="false" v:ask="false" v:langID="1033" v:cal="0"/>
				<v:cp v:nameU="ProductDescription" v:lbl="Product Description" v:prompt="" v:type="0" v:format=""
						v:sortKey="Equipment" v:invis="false" v:ask="false" v:langID="1033" v:cal="0"/>
				<v:cp v:nameU="ShapeClass" v:lbl="ShapeClass" v:prompt="" v:type="0" v:format="" v:sortKey="" v:invis="true"
						v:ask="false" v:langID="1033" v:cal="0" v:val="VT4(Equipment)"/>
				<v:cp v:nameU="ShapeType" v:lbl="ShapeType" v:prompt="" v:type="0" v:format="" v:sortKey="" v:invis="true"
						v:ask="false" v:langID="1033" v:cal="0" v:val="VT4(Device)"/>
				<v:cp v:nameU="SubShapeType" v:lbl="SubShapeType" v:prompt="" v:type="0" v:format="" v:sortKey="" v:invis="true"
						v:ask="false" v:langID="1033" v:cal="0" v:val="VT4(Firewall)"/>
			</v:custProps>
			<v:userDefs>
				<v:ud v:nameU="visVersion" v:prompt="" v:val="VT0(15):26"/>
				<v:ud v:nameU="ShapeClass" v:prompt="" v:val="VT0(5):26"/>
				<v:ud v:nameU="SolSH" v:prompt="" v:val="VT15({BF0433D9-CD73-4EB5-8390-8653BE590246}):41"/>
				<v:ud v:nameU="visLegendShape" v:prompt="" v:val="VT0(2):26"/>
			</v:userDefs>
			<title>Firewall.12</title>
			<g id="shape13-51" v:mID="13" v:groupContext="shape" transform="translate(0.545123,-7.63784)">
				<title>Sheet.13</title>
				<rect x="0" y="129.784" width="69.7759" height="55.5905" class="st6"/>
			</g>
			<g id="shape14-53" v:mID="14" v:groupContext="shape" transform="translate(0.920123,-8.01284)">
				<title>Sheet.14</title>
				<v:userDefs>
					<v:ud v:nameU="SurroundingRegionColor" v:prompt="" v:val="VT5(1)"/>
				</v:userDefs>
				<path d="M0 177.54 L69.03 177.54" class="st7"/>
				<path d="M0 169.71 L69.03 169.71" class="st7"/>
				<path d="M0 161.87 L69.03 161.87" class="st7"/>
				<path d="M0 154.04 L69.03 154.04" class="st7"/>
				<path d="M0 146.2 L69.03 146.2" class="st7"/>
				<path d="M0 138.37 L69.03 138.37" class="st7"/>
				<path d="M17.26 185.37 L17.26 177.54" class="st7"/>
				<path d="M34.51 185.37 L34.51 177.54" class="st7"/>
				<path d="M51.77 185.37 L51.77 177.54" class="st7"/>
				<path d="M8.63 177.54 L8.63 169.71" class="st7"/>
				<path d="M25.88 177.54 L25.88 169.71" class="st7"/>
				<path d="M43.14 177.54 L43.14 169.71" class="st7"/>
				<path d="M60.4 177.54 L60.4 169.71" class="st7"/>
				<path d="M17.26 169.71 L17.26 161.87" class="st7"/>
				<path d="M34.51 169.71 L34.51 161.87" class="st7"/>
				<path d="M51.77 169.71 L51.77 161.87" class="st7"/>
				<path d="M8.63 161.87 L8.63 154.04" class="st7"/>
				<path d="M25.88 161.87 L25.88 154.04" class="st7"/>
				<path d="M43.14 161.87 L43.14 154.04" class="st7"/>
				<path d="M60.4 161.87 L60.4 154.04" class="st7"/>
				<path d="M17.26 154.04 L17.26 146.2" class="st7"/>
				<path d="M34.51 154.04 L34.51 146.2" class="st7"/>
				<path d="M51.77 154.04 L51.77 146.2" class="st7"/>
				<path d="M8.63 146.2 L8.63 138.37" class="st7"/>
				<path d="M25.88 146.2 L25.88 138.37" class="st7"/>
				<path d="M43.14 146.2 L43.14 138.37" class="st7"/>
				<path d="M60.4 146.2 L60.4 138.37" class="st7"/>
				<path d="M17.26 138.37 L17.26 130.53" class="st7"/>
				<path d="M34.51 138.37 L34.51 130.53" class="st7"/>
				<path d="M51.77 138.37 L51.77 130.53" class="st7"/>
			</g>
		</g>
		<g id="shape15-85" v:mID="15" v:groupContext="shape" transform="translate(297.304,-0.375)">
			<title>Sheet.15</title>
			<desc>/etc/corosync/authkey</desc>
			<v:textBlock v:margins="rect(4,4,4,4)" v:tabSpace="42.5197"/>
			<v:textRect cx="70.1575" cy="175.375" width="140.32" height="20"/>
			<rect x="0" y="165.375" width="140.315" height="20" class="st4"/>
			<text x="9.58" y="178.98" class="st8" v:langID="1042"><v:paragraph v:horizAlign="1"/><v:tabList/>/etc/corosync/authkey</text>		</g>
		<g id="shape16-88" v:mID="16" v:groupContext="shape" transform="translate(580.769,-0.375)">
			<title>Sheet.16</title>
			<desc>/etc/corosync/authkey</desc>
			<v:textBlock v:margins="rect(4,4,4,4)" v:tabSpace="42.5197"/>
			<v:textRect cx="70.1575" cy="175.375" width="140.32" height="20"/>
			<rect x="0" y="165.375" width="140.315" height="20" class="st4"/>
			<text x="9.58" y="178.98" class="st8" v:langID="1042"><v:paragraph v:horizAlign="1"/><v:tabList/>/etc/corosync/authkey</text>		</g>
		<g id="shape18-91" v:mID="18" v:groupContext="shape" transform="translate(863.525,-0.375)">
			<title>Sheet.18</title>
			<desc>/etc/corosync/authkey</desc>
			<v:textBlock v:margins="rect(4,4,4,4)" v:tabSpace="42.5197"/>
			<v:textRect cx="70.1575" cy="175.375" width="140.32" height="20"/>
			<rect x="0" y="165.375" width="140.315" height="20" class="st4"/>
			<text x="9.58" y="178.98" class="st8" v:langID="1042"><v:paragraph v:horizAlign="1"/><v:tabList/>/etc/corosync/authkey</text>		</g>
		<g id="shape21-94" v:mID="21" v:groupContext="shape" transform="translate(0.375,-38.7214)">
			<title>Sheet.21</title>
			<desc># pcs cluster status # pcs status</desc>
			<v:textBlock v:margins="rect(4,4,4,4)" v:tabSpace="42.5197"/>
			<v:textRect cx="70.1575" cy="166.95" width="140.32" height="36.8504"/>
			<path d="M0 185.37 L140.31 185.37 L140.31 148.52 L0 148.52 L0 185.37 Z" class="st9"/>
			<text x="4" y="163.35" class="st8" v:langID="1042"><v:paragraph/><v:tabList/># pcs cluster status<v:newlineChar/><tspan
						x="4" dy="1.2em" class="st10"># pcs status</tspan></text>		</g>
		<g id="shape22-98" v:mID="22" v:groupContext="shape" v:layerMember="0" transform="translate(140.69,-58.4852)">
			<title>Dynamic connector</title>
			<path d="M9.45 178.29 L9.81 178.29 L160.27 178.29" class="st11"/>
		</g>
		<g id="shape23-107" v:mID="23" v:groupContext="shape" v:layerMember="1" transform="translate(353.288,-136.438)">
			<title>Voting gate</title>
			<desc>vote</desc>
			<v:userDefs>
				<v:ud v:nameU="visVersion" v:prompt="" v:val="VT0(15):26"/>
			</v:userDefs>
			<v:textBlock v:margins="rect(2,2,2,2)" v:tabSpace="42.5197" v:verticalAlign="0"/>
			<v:textRect cx="14.1732" cy="192.462" width="22.55" height="14.1732"/>
			<path d="M28.35 185.37 A26.1794 8.83882 -102.96 0 0 14.17 157.03 A25.1845 8.02445 -76.03 0 0 0 185.37 A43.7008 43.7008
						 0 0 1 28.35 185.37 Z" class="st13"/>
			<text x="6.31" y="194.57" class="st14" v:langID="1042"><v:paragraph v:horizAlign="1"/><v:tabList/>vote</text>		</g>
		<g id="shape24-110" v:mID="24" v:groupContext="shape" v:layerMember="1" transform="translate(636.753,-136.438)">
			<title>Voting gate.24</title>
			<desc>vote</desc>
			<v:userDefs>
				<v:ud v:nameU="visVersion" v:prompt="" v:val="VT0(15):26"/>
			</v:userDefs>
			<v:textBlock v:margins="rect(2,2,2,2)" v:tabSpace="42.5197" v:verticalAlign="0"/>
			<v:textRect cx="14.1732" cy="192.462" width="22.55" height="14.1732"/>
			<path d="M28.35 185.37 A26.1794 8.83882 -102.96 0 0 14.17 157.03 A25.1845 8.02445 -76.03 0 0 0 185.37 A43.7008 43.7008
						 0 0 1 28.35 185.37 Z" class="st13"/>
			<text x="6.31" y="194.57" class="st14" v:langID="1042"><v:paragraph v:horizAlign="1"/><v:tabList/>vote</text>		</g>
		<g id="shape25-113" v:mID="25" v:groupContext="shape" v:layerMember="1" transform="translate(920.218,-136.438)">
			<title>Voting gate.25</title>
			<desc>vote</desc>
			<v:userDefs>
				<v:ud v:nameU="visVersion" v:prompt="" v:val="VT0(15):26"/>
			</v:userDefs>
			<v:textBlock v:margins="rect(2,2,2,2)" v:tabSpace="42.5197" v:verticalAlign="0"/>
			<v:textRect cx="14.1732" cy="192.462" width="22.55" height="14.1732"/>
			<path d="M28.35 185.37 A26.1794 8.83882 -102.96 0 0 14.17 157.03 A25.1845 8.02445 -76.03 0 0 0 185.37 A43.7008 43.7008
						 0 0 1 28.35 185.37 Z" class="st13"/>
			<text x="6.31" y="194.57" class="st14" v:langID="1042"><v:paragraph v:horizAlign="1"/><v:tabList/>vote</text>		</g>
		<g id="shape26-116" v:mID="26" v:groupContext="shape" v:layerMember="0" transform="translate(360.375,-138.8)">
			<title>Dynamic connector.26</title>
			<path d="M7.09 185.37 L7.09 216.08" class="st15"/>
		</g>
		<g id="shape27-119" v:mID="27" v:groupContext="shape" v:layerMember="0" transform="translate(643.84,-138.8)">
			<title>Dynamic connector.27</title>
			<path d="M7.09 185.37 L7.09 216.08" class="st15"/>
		</g>
		<g id="shape28-122" v:mID="28" v:groupContext="shape" v:layerMember="0" transform="translate(927.304,-138.8)">
			<title>Dynamic connector.28</title>
			<path d="M7.09 185.37 L7.09 216.08" class="st15"/>
		</g>
		<g id="shape29-125" v:mID="29" v:groupContext="shape" transform="translate(704.438,-55.5718)">
			<title>Sheet.29</title>
			<desc>internal network</desc>
			<v:textBlock v:margins="rect(4,4,4,4)" v:tabSpace="42.5197"/>
			<v:textRect cx="76" cy="175.375" width="152" height="20"/>
			<rect x="0" y="165.375" width="152" height="20" class="st4"/>
			<text x="28.64" y="179.06" class="st5" v:langID="1042"><v:paragraph v:horizAlign="1"/><v:tabList/>internal network</text>		</g>
		<g id="group19-128" transform="translate(211.556,-129.724)" v:mID="19" v:groupContext="group">
			<v:userDefs>
				<v:ud v:nameU="visVersion" v:prompt="" v:val="VT0(17):26"/>
				<v:ud v:nameU="msvStructureType" v:prompt="" v:val="VT4(Callout)"/>
				<v:ud v:nameU="msvSDTargetIntersection" v:prompt=""/>
				<v:ud v:nameU="msvSDCalloutNoHighlight" v:prompt="" v:val="VT0(0):5"/>
				<v:ud v:nameU="msvShapeCategories" v:prompt="" v:val="VT0(0):26"/>
				<v:ud v:nameU="Side" v:prompt="" v:val="VT0(4):26"/>
				<v:ud v:nameU="LeaderEnd" v:prompt="" v:val="VT7(PNT(6.25MM,-0.28346456692913)):40"/>
				<v:ud v:nameU="WHBoxIntersection" v:prompt="" v:val="VT7(PNT(10.096153846154MM,0)):40"/>
				<v:ud v:nameU="FoldSize" v:prompt="" v:val="VT0(0.11811023622047):24"/>
				<v:ud v:nameU="msvSDTargetIntersection" v:prompt="" v:val="VT7(PNT(1.3902709445466,-0.30045607345649)):40"/>
				<v:ud v:nameU="Side" v:prompt="" v:val="VT0(1):26"/>
				<v:ud v:nameU="LeaderEnd" v:prompt="" v:val="VT7(PNT(1.3902709445466,-0.30045607345649)):40"/>
				<v:ud v:nameU="WHBoxIntersection" v:prompt="" v:val="VT7(PNT(25MM,0)):40"/>
			</v:userDefs>
			<title>Note</title>
			<desc>pacemaker pcsd corosync</desc>
			<g id="shape19-129" v:mID="19" v:groupContext="groupContent">
				<v:textBlock v:margins="rect(4,4,4,4)" v:tabSpace="42.5197"/>
				<v:textRect cx="35.4331" cy="157.737" width="70.87" height="51.2039"/>
				<path d="M0 185.37 L70.87 185.37 L70.87 138.6 L62.36 130.1 L0 130.1 L0 185.37 Z" class="st16"/>
				<path d="M70.87 185.37 L100.1 207.01" class="st15"/>
				<path d="M0 185.37 L70.87 185.37 L70.87 138.6 L62.36 130.1 L0 130.1 L0 185.37" class="st15"/>
				<text x="8.41" y="146.94" class="st17" v:langID="1042"><v:paragraph v:horizAlign="1"/><v:tabList/>pacemaker<v:newlineChar/><tspan
							x="24.24" dy="1.2em" class="st10">pcsd<v:newlineChar/></tspan><tspan x="13.72" dy="1.2em" class="st10">corosync</tspan></text>			</g>
			<g id="shape20-136" v:mID="20" v:groupContext="shape" transform="translate(62.3622,-46.7717)">
				<title>Sheet.20</title>
				<v:userDefs>
					<v:ud v:nameU="FoldSize" v:prompt="" v:val="VT0(0.11811023622047):24"/>
				</v:userDefs>
				<path d="M0 185.37 L8.5 185.37 L8.5 186.23 L8.5 185.37 L0 176.87 L-0.85 176.87 L0 176.87 L0 185.37 Z" class="st6"/>
			</g>
		</g>
	</g>
</svg>
